# xmcd CD database file
#
# Track frame offsets:
#	150
#	7825
#	31672
#	50632
#	72557
#	91547
#	104770
#	117375
#	134442
#	155625
#	176742
#	194047
#	210352
#	237505
#
# Disc length: 4440 seconds
#
# Revision: 0
# Processed by: cddbd v1.5PL3 Copyright (c) Steve Scherf et al.
# Submitted via: CDex 1.51
#
DISCID=c511560e
DTITLE=Various Artist - X-Trail Jam
DYEAR=2003
DGENRE=Hip-Hop
TTITLE0=Intro
TTITLE1=Row,Row,Row(720 Spin Version)
TTITLE2=Rhythmist
TTITLE3=True To Myself
TTITLE4=Dancer's High
TTITLE5=Free Fall
TTITLE6=Power Of The Sun
TTITLE7=Swing My Soul
TTITLE8=Departure
TTITLE9=What's The Answer?
TTITLE10=Hold On
TTITLE11=Yeah Oh!!
TTITLE12=けむり
TTITLE13=役立たずのコピーガード
EXTD=YEAR: 2003
EXTT0=
EXTT1=
EXTT2=
EXTT3=
EXTT4=
EXTT5=
EXTT6=
EXTT7=
EXTT8=
EXTT9=
EXTT10=
EXTT11=
EXTT12=
EXTT13=
PLAYORDER=
